<svg xmlns="http://www.w3.org/2000/svg" viewBox="0 0 600 300" fill="none">
  <defs>
    <radialGradient id="bg3" cx="50%" cy="50%" r="70%"><stop offset="0%" stop-color="#0a0a1a"/><stop offset="100%" stop-color="#020003"/></radialGradient>
    <filter id="g3"><feGaussianBlur stdDeviation="4" result="b"/><feMerge><feMergeNode in="b"/><feMergeNode in="SourceGraphic"/></feMerge></filter>
    <filter id="g3b"><feGaussianBlur stdDeviation="8" result="b"/><feMerge><feMergeNode in="b"/><feMergeNode in="SourceGraphic"/></feMerge></filter>
    <linearGradient id="ch" x1="0" y1="0" x2="1" y2="0"><stop offset="0%" stop-color="#00f0ff"/><stop offset="100%" stop-color="#a855f7"/></linearGradient>
  </defs>
  <rect width="600" height="300" fill="url(#bg3)"/>
  <g filter="url(#g3)">
    <rect x="120" y="115" width="65" height="65" rx="8" stroke="#00f0ff" stroke-width="1.2" fill="rgba(0,240,255,0.04)"/>
    <text x="138" y="155" font-family="monospace" font-size="11" fill="#00f0ff" opacity="0.7">0x3f</text>
    <line x1="185" y1="148" x2="225" y2="148" stroke="url(#ch)" stroke-width="1.5" stroke-dasharray="6 3" opacity="0.5"/>
    <rect x="225" y="115" width="65" height="65" rx="8" stroke="#a855f7" stroke-width="1.2" fill="rgba(168,85,247,0.04)"/>
    <text x="243" y="155" font-family="monospace" font-size="11" fill="#a855f7" opacity="0.7">0xa7</text>
    <line x1="290" y1="148" x2="330" y2="148" stroke="url(#ch)" stroke-width="1.5" stroke-dasharray="6 3" opacity="0.5"/>
    <rect x="330" y="115" width="65" height="65" rx="8" stroke="#00f0ff" stroke-width="1.2" fill="rgba(0,240,255,0.04)"/>
    <text x="348" y="155" font-family="monospace" font-size="11" fill="#00f0ff" opacity="0.7">0xd2</text>
    <line x1="395" y1="148" x2="435" y2="148" stroke="url(#ch)" stroke-width="1.5" stroke-dasharray="6 3" opacity="0.5"/>
    <rect x="435" y="115" width="65" height="65" rx="8" stroke="#a855f7" stroke-width="1.2" fill="rgba(168,85,247,0.04)" opacity="0.5"/>
  </g>
  <g filter="url(#g3b)" opacity="0.3">
    <circle cx="152" cy="80" r="4" stroke="#00f0ff" stroke-width="0.8" fill="rgba(0,240,255,0.1)"/>
    <circle cx="257" cy="80" r="4" stroke="#a855f7" stroke-width="0.8" fill="rgba(168,85,247,0.1)"/>
    <circle cx="362" cy="80" r="4" stroke="#00f0ff" stroke-width="0.8" fill="rgba(0,240,255,0.1)"/>
    <circle cx="152" cy="215" r="4" stroke="#a855f7" stroke-width="0.8" fill="rgba(168,85,247,0.1)"/>
    <circle cx="257" cy="215" r="4" stroke="#00f0ff" stroke-width="0.8" fill="rgba(0,240,255,0.1)"/>
    <circle cx="362" cy="215" r="4" stroke="#a855f7" stroke-width="0.8" fill="rgba(168,85,247,0.1)"/>
    <line x1="152" y1="84" x2="152" y2="211" stroke="#00f0ff" stroke-width="0.4" stroke-dasharray="2 4"/>
    <line x1="362" y1="84" x2="362" y2="211" stroke="#a855f7" stroke-width="0.4" stroke-dasharray="2 4"/>
  </g>
  <circle cx="60" cy="60" r="2" fill="#00f0ff" opacity="0.3" filter="url(#g3b)"/>
  <circle cx="550" cy="250" r="2.5" fill="#a855f7" opacity="0.25" filter="url(#g3b)"/>
</svg>
